G04*
G04 #@! TF.GenerationSoftware,Altium Limited,Altium Designer,19.1.8 (144)*
G04*
G04 Layer_Color=8388736*
%FSLAX24Y24*%
%MOIN*%
G70*
G01*
G75*
%ADD16C,0.0100*%
G36*
X18500Y20550D02*
X13300Y20550D01*
Y18550D01*
X16550Y18550D01*
X18800Y16300D01*
X18800Y9050D01*
X17800D01*
X15300Y6550D01*
Y6000D01*
X14000D01*
Y17000D01*
X11400D01*
Y18550D01*
X9400Y20550D01*
X8000Y20550D01*
Y21500D01*
X18500Y21500D01*
Y20550D01*
D02*
G37*
G36*
X26300Y38500D02*
X26300Y20550D01*
X20500Y20550D01*
X20500Y21500D01*
X22500Y21500D01*
Y38500D01*
X26300Y38500D01*
D02*
G37*
G36*
X2500Y38550D02*
X2500Y21500D01*
X6000D01*
Y20550D01*
X4400D01*
X2400Y18550D01*
X2400Y14550D01*
X4400Y12550D01*
X6000Y12550D01*
X6000Y11500D01*
X-0Y11500D01*
X-0Y38550D01*
X2500Y38550D01*
D02*
G37*
G36*
X12500Y15500D02*
X12500Y11500D01*
X8000Y11500D01*
Y12550D01*
X9400D01*
X11400Y14550D01*
X11400Y15500D01*
X12500Y15500D01*
D02*
G37*
G36*
X500Y8500D02*
X0D01*
Y10500D01*
X500D01*
Y8500D01*
D02*
G37*
G36*
X12500Y7000D02*
X11400Y7000D01*
X11400Y8500D01*
X11000Y8500D01*
X11000Y9500D01*
X12500Y9500D01*
X12500Y7000D01*
D02*
G37*
G36*
X9946Y6481D02*
X10037Y6443D01*
X10119Y6388D01*
X10188Y6319D01*
X10243Y6237D01*
X10281Y6146D01*
X10300Y6049D01*
Y6000D01*
Y5000D01*
Y4951D01*
X10281Y4854D01*
X10243Y4763D01*
X10188Y4681D01*
X10119Y4612D01*
X10037Y4557D01*
X9946Y4519D01*
X9849Y4500D01*
X9350D01*
Y6500D01*
X9849D01*
X9946Y6481D01*
D02*
G37*
G36*
X26300Y18550D02*
X26300Y-2000D01*
X12500Y-2000D01*
Y-2000D01*
X10850Y-2000D01*
X10850Y0D01*
X11400Y550D01*
X11400Y5000D01*
X12500Y5000D01*
X12500Y3250D01*
X12500Y4000D01*
X15300Y4000D01*
X15300Y2550D01*
X17300Y550D01*
X22300Y550D01*
X24300Y2550D01*
Y6550D01*
X21800Y9050D01*
X20800D01*
Y16300D01*
X23050Y18550D01*
X26300Y18550D01*
D02*
G37*
G36*
X9500Y8500D02*
X9350D01*
X9350Y1050D01*
X8300Y-0D01*
X4750Y0D01*
X2200Y2550D01*
Y4500D01*
X1651D01*
X1554Y4519D01*
X1463Y4557D01*
X1381Y4612D01*
X1312Y4681D01*
X1257Y4763D01*
X1219Y4854D01*
X1200Y4951D01*
Y5000D01*
Y6000D01*
Y6049D01*
X1219Y6146D01*
X1257Y6237D01*
X1312Y6319D01*
X1381Y6388D01*
X1463Y6443D01*
X1554Y6481D01*
X1651Y6500D01*
X2200D01*
Y8500D01*
X2000Y8500D01*
Y9500D01*
X9500D01*
Y8500D01*
D02*
G37*
G36*
X2800Y0D02*
Y-2000D01*
X0D01*
Y2800D01*
X2800Y0D01*
D02*
G37*
D16*
X0Y38500D02*
X26300D01*
X0Y-2000D02*
X26300D01*
X26300Y38500D02*
X26300Y-2000D01*
X0D02*
Y38500D01*
M02*
