M48
;Layer_Color=9474304
;FILE_FORMAT=2:4
INCH,LZ
;TYPE=PLATED
;TYPE=NON_PLATED
T3F00S00C0.0310
%
T03
X0153Y004
Y0045
Y005
Y0055
X0153Y006
X0114
Y0055
X0114Y005
X0114Y0065
X0114Y007
X011Y0085
X0105Y0085
X01
X0095Y0085
X0114Y0095
Y01
X0114Y0105
X0114Y011
Y0115
Y0155
X0114Y016
Y0165
X0114Y017
X008Y01255
X0075
X007
X0065
X006Y01255
X002Y0085
X0015Y0085
X001
X0005
X006Y02055
X0065
X007
X0075
X008Y02055
Y0215
X0075Y0215
X007
X0065
X006
X0185
X019
X0195
X02
X0205
X0205Y02055
X02
X0195
X019
X0185
M30
